# xmcd
#
# Track frame offsets: 
#        150
#        19092
#        33762
#        50927
#        71484
#        83559
#        111619
#        129013
#        143576
#        175078
#        190743
#        217719
#        245757
#        279204
#        298883
#        328797
#
# Disc length: 4808 seconds
#
# Revision: 0
# Processed by: cddbd v1.5.2PL0 Copyright (c) Steve Scherf et al.
# Submitted via: ExactAudioCopy v1.3
#
DISCID=e412c610
DTITLE=Various Artist - Akella Presents - vol.136 - Black Pure Blues 
DTITLE=CD1
DYEAR=2018
DGENRE=Blues
TTITLE0=Johnny Jones - Groove Thing
TTITLE1=Phillip Walker - Honey Stew
TTITLE2=Jerry 'Boogie' McCain - Slave Master
TTITLE3=Sonny Rodgers - You Got to Love Me or Leave Me
TTITLE4=Grady Freeman - Ain't Singin' The Blues No More
TTITLE5=Big James - I'll Never Be The Same
TTITLE6=Edward Taylor - Soul Brother
TTITLE7=Bobby 'Blue' Bland - What a Wonderful World
TTITLE8=Jay Owens - Wishing Well
TTITLE9=Nate Turner - Your Love
TTITLE10=Tad Robinson - Room With A View
TTITLE11=Willie King - Shake It
TTITLE12=Lurrie Bell - I'll Play The Blues For You
TTITLE13=Bobby Jones and The Mannish Boys - Cry For Me Baby
TTITLE14=Marquise Knox - You Need Love
TTITLE15=Jimmy D. Lane - One Room Country Shack
EXTD=
EXTT0=
EXTT1=
EXTT2=
EXTT3=
EXTT4=
EXTT5=
EXTT6=
EXTT7=
EXTT8=
EXTT9=
EXTT10=
EXTT11=
EXTT12=
EXTT13=
EXTT14=
EXTT15=
PLAYORDER=
